<svg width="24" height="24" viewBox="0 0 24 24" fill="none" xmlns="http://www.w3.org/2000/svg">
<path d="M12.0376 14.5407C12.2815 15.0681 12.7227 15.4785 13.2663 15.6835C13.8098 15.8886 14.4122 15.8719 14.9436 15.637C15.0837 15.5869 15.238 15.5945 15.3727 15.6579C15.5073 15.7214 15.6113 15.8356 15.6618 15.9756C15.7123 16.1156 15.7053 16.27 15.6423 16.4048C15.5792 16.5396 15.4653 16.644 15.3255 16.6949C14.8974 16.855 14.4447 16.9393 13.9877 16.9441C13.3616 16.932 12.7514 16.7446 12.2264 16.4032C11.7014 16.0618 11.2826 15.58 11.0176 15.0126C10.9866 14.9456 10.9691 14.8732 10.9661 14.7995C10.9631 14.7257 10.9747 14.6521 11.0001 14.5829C11.0256 14.5136 11.0644 14.45 11.1145 14.3958C11.1645 14.3415 11.2247 14.2976 11.2917 14.2667C11.4269 14.2041 11.5815 14.1978 11.7214 14.2492C11.7907 14.2747 11.8543 14.3135 11.9085 14.3635C11.9628 14.4135 12.0067 14.4738 12.0376 14.5407ZM15.7128 18.1512C15.7787 18.1179 15.8374 18.072 15.8855 18.016C15.9336 17.9601 15.9702 17.8952 15.9932 17.8251C16.0163 17.755 16.0253 17.681 16.0197 17.6074C16.0141 17.5338 15.9942 17.4621 15.9609 17.3962C15.9276 17.3303 15.8816 17.2717 15.8257 17.2236C15.7697 17.1755 15.7048 17.1388 15.6347 17.1158C15.5646 17.0928 15.4907 17.0838 15.4171 17.0893C15.3435 17.0949 15.2717 17.1149 15.2058 17.1482C12.8662 18.329 11.6755 17.0439 11.6195 16.9814C11.5225 16.8683 11.3845 16.7984 11.2359 16.7871C11.0873 16.7758 10.9403 16.8239 10.8272 16.921C10.7141 17.0181 10.6442 17.1561 10.6329 17.3047C10.6216 17.4533 10.6698 17.6003 10.7668 17.7133C11.0994 18.0587 11.4997 18.3316 11.9428 18.5148C12.3858 18.698 12.862 18.7875 13.3413 18.7778C14.1702 18.7591 14.9829 18.5444 15.7129 18.1512H15.7128ZM21.7957 10.5259C21.7268 10.4688 21.6452 10.429 21.5577 10.41C21.4703 10.391 21.3795 10.3933 21.2931 10.4167C21.2613 10.4249 18.0646 11.2562 15.9488 10.2471C15.8924 10.22 15.835 10.1932 15.7781 10.1679C15.3902 9.99519 14.9663 9.91892 14.5425 9.94561C14.1188 9.97231 13.7077 10.1012 13.3446 10.3212C13.2173 10.3984 13.126 10.523 13.0905 10.6676C13.055 10.8122 13.0784 10.9649 13.1554 11.0923C13.2325 11.2196 13.3569 11.3112 13.5015 11.3469C13.646 11.3826 13.7988 11.3594 13.9262 11.2825C14.2055 11.1143 14.5313 11.04 14.8559 11.0704C15.1804 11.1009 15.4867 11.2345 15.7298 11.4517C15.973 11.6689 16.1401 11.9582 16.2068 12.2773C16.2734 12.5965 16.2361 12.9285 16.1003 13.2249C15.9645 13.5213 15.7374 13.7663 15.4521 13.9242C15.1669 14.082 14.8386 14.1444 14.5153 14.102C14.1921 14.0597 13.8909 13.9149 13.6559 13.689C13.421 13.463 13.2645 13.1677 13.2096 12.8463C13.1847 12.6994 13.1025 12.5683 12.981 12.482C12.8594 12.3956 12.7086 12.3611 12.5616 12.386C12.4146 12.4109 12.2835 12.4931 12.1972 12.6147C12.1109 12.7362 12.0764 12.887 12.1012 13.034C12.2127 13.6886 12.5659 14.2774 13.0908 14.684C13.6158 15.0906 14.2743 15.2851 14.936 15.2292C15.5976 15.1734 16.2141 14.871 16.6635 14.3822C17.1128 13.8933 17.3622 13.2536 17.3622 12.5896C17.3586 12.3091 17.3099 12.031 17.218 11.766C18.4185 11.9203 19.6357 11.8861 20.8256 11.6644L20.6775 13.8219C19.3423 14.6979 18.2511 15.8982 17.506 17.3106C17.3786 17.532 17.215 17.7304 17.022 17.8977C15.9345 18.7112 14.6756 19.2656 13.3413 19.5186C13.2067 19.5495 13.0882 19.6289 13.0085 19.7416C12.9287 19.8543 12.8932 19.9925 12.9088 20.1297C12.9244 20.2669 12.99 20.3936 13.0931 20.4855C13.1961 20.5774 13.3294 20.6282 13.4675 20.6281C13.51 20.6281 13.5523 20.6234 13.5937 20.6138C15.0976 20.324 16.5147 19.692 17.7353 18.7669C18.0268 18.5186 18.2743 18.2229 18.4673 17.8922C20.0816 15.2343 21.3908 14.7207 21.3952 14.7185C21.5004 14.6832 21.5928 14.6174 21.6606 14.5295C21.7284 14.4415 21.7686 14.3355 21.776 14.2247L21.9988 10.9983C22.0047 10.9091 21.9894 10.8198 21.9541 10.7377C21.9188 10.6556 21.8645 10.583 21.7957 10.5259ZM12.4733 9.78293C12.5674 9.78279 12.66 9.75898 12.7426 9.7137C12.8252 9.66843 12.895 9.60313 12.9458 9.52381C12.9965 9.4445 13.0265 9.3537 13.033 9.25976C13.0395 9.16582 13.0223 9.07175 12.983 8.9862C12.6216 8.20339 11.9711 7.59097 11.1679 7.27742C10.3647 6.96386 9.47133 6.97354 8.67513 7.30442C8.53499 7.35492 8.42065 7.45902 8.35726 7.59382C8.29388 7.72863 8.28664 7.88309 8.33713 8.02323C8.38763 8.16337 8.49173 8.27771 8.62653 8.3411C8.76133 8.40448 8.9158 8.41173 9.05594 8.36123C9.58763 8.12647 10.1902 8.10987 10.7341 8.31502C11.2779 8.52017 11.7194 8.93065 11.9635 9.45809C12.0086 9.55528 12.0805 9.63752 12.1709 9.69508C12.2612 9.75265 12.3662 9.78313 12.4733 9.78292L12.4733 9.78293ZM8.28779 5.84707C8.15478 5.91416 8.05387 6.03134 8.00725 6.17283C7.96064 6.31432 7.97214 6.46853 8.03923 6.60154C8.10632 6.73455 8.2235 6.83547 8.36499 6.88208C8.50648 6.92869 8.66069 6.91719 8.7937 6.8501C11.135 5.66874 12.3252 6.95491 12.3811 7.018C12.4786 7.13005 12.6164 7.19899 12.7645 7.20976C12.9126 7.22054 13.0589 7.17228 13.1715 7.07552C13.2842 6.97876 13.3539 6.84137 13.3656 6.69334C13.3773 6.54532 13.3299 6.39869 13.2338 6.28548C13.1636 6.20209 11.4522 4.252 8.28779 5.84707ZM10.8453 12.9045C10.7678 12.7772 10.643 12.6859 10.4982 12.6506C10.3535 12.6154 10.2006 12.639 10.0733 12.7163C9.83612 12.8596 9.56411 12.935 9.28699 12.9341C8.99637 12.934 8.71184 12.8508 8.46689 12.6944C8.22195 12.538 8.02679 12.3149 7.9044 12.0513C7.78201 11.7877 7.73748 11.4946 7.77605 11.2066C7.81463 10.9185 7.9347 10.6475 8.12213 10.4254C8.30957 10.2033 8.55656 10.0394 8.83402 9.95292C9.11149 9.86647 9.40788 9.8611 9.68829 9.93743C9.96871 10.0138 10.2215 10.1686 10.4168 10.3838C10.6122 10.599 10.742 10.8655 10.791 11.1519C10.8033 11.2247 10.8298 11.2944 10.8691 11.3569C10.9083 11.4194 10.9595 11.4736 11.0197 11.5163C11.0798 11.5591 11.1478 11.5896 11.2198 11.606C11.2917 11.6225 11.3662 11.6246 11.439 11.6123C11.5118 11.6 11.5814 11.5734 11.644 11.5342C11.7065 11.495 11.7607 11.4438 11.8034 11.3836C11.8462 11.3235 11.8766 11.2554 11.8931 11.1835C11.9096 11.1115 11.9117 11.037 11.8994 10.9643C11.7877 10.3097 11.4344 9.72099 10.9094 9.31456C10.3843 8.90812 9.72579 8.71363 9.06417 8.76959C8.40256 8.82555 7.78606 9.12787 7.33673 9.61672C6.8874 10.1056 6.63798 10.7453 6.63785 11.4093C6.64142 11.6898 6.69015 11.968 6.78216 12.2331C5.58148 12.0789 4.36409 12.1129 3.17388 12.3338L3.32313 10.1769C4.65778 9.30093 5.74871 8.10107 6.49408 6.68933C6.62163 6.46744 6.78539 6.26844 6.97858 6.10057C8.06597 5.28726 9.32466 4.73289 10.6587 4.4797C10.804 4.44623 10.93 4.35643 11.009 4.23007C11.088 4.1037 11.1136 3.95112 11.0802 3.80588C11.0467 3.66065 10.9569 3.53466 10.8305 3.45563C10.7042 3.3766 10.5516 3.351 10.4063 3.38447C8.9024 3.67402 7.4854 4.30618 6.26527 5.23191C5.97386 5.48024 5.7264 5.77593 5.5333 6.10654C3.91901 8.76508 2.60981 9.27756 2.60541 9.27976C2.50027 9.31519 2.40796 9.38094 2.34011 9.46872C2.27225 9.55651 2.23188 9.6624 2.22407 9.77308L2.00129 13.0006C1.99524 13.0898 2.01056 13.1792 2.04596 13.2614C2.08136 13.3435 2.13584 13.4161 2.20486 13.473C2.27416 13.5292 2.35567 13.5685 2.44285 13.5875C2.53004 13.6066 2.62048 13.6049 2.70692 13.5827C2.73874 13.5739 5.93715 12.7416 8.05076 13.7517C8.09499 13.7729 8.15576 13.8027 8.21632 13.8275C8.60496 14.0017 9.0301 14.0791 9.45523 14.0529C9.88036 14.0268 10.2928 13.8978 10.6571 13.6771C10.7845 13.5996 10.8758 13.4746 10.9111 13.3298C10.9464 13.1849 10.9227 13.0319 10.8453 12.9045Z" fill="black"/>
</svg>
