<svg width="24" height="24" viewBox="0 0 24 24" fill="none" xmlns="http://www.w3.org/2000/svg">
<path d="M12.0048 9.13333C12.4782 9.13553 12.9416 8.99701 13.3361 8.73537C13.7307 8.47372 14.0386 8.10074 14.2208 7.66378C14.403 7.22681 14.4512 6.74557 14.3594 6.28114C14.2676 5.81671 14.0398 5.39003 13.7051 5.05527C13.3703 4.72051 12.9436 4.49277 12.4792 4.40094C12.0148 4.30912 11.5335 4.35737 11.0966 4.53955C10.6596 4.72174 10.2866 5.02965 10.025 5.4242C9.76332 5.81874 9.6248 6.28214 9.627 6.75556C9.62992 7.38528 9.88137 7.98838 10.3267 8.43367C10.7719 8.87896 11.375 9.13041 12.0048 9.13333ZM10.727 6.75556C10.727 6.50283 10.8019 6.25579 10.9423 6.04566C11.0827 5.83553 11.2823 5.67175 11.5158 5.57504C11.7493 5.47833 12.0062 5.45303 12.2541 5.50233C12.5019 5.55163 12.7296 5.67333 12.9083 5.85203C13.087 6.03073 13.2087 6.25841 13.258 6.50627C13.3073 6.75414 13.282 7.01106 13.1853 7.24454C13.0886 7.47802 12.9248 7.67758 12.7147 7.81799C12.5045 7.95839 12.2575 8.03333 12.0048 8.03333C11.6668 8.03043 11.3435 7.89488 11.1045 7.65587C10.8655 7.41687 10.7299 7.09354 10.727 6.75556ZM12.0048 19.6333C12.4777 19.6355 12.9407 19.4973 13.335 19.2361C13.7293 18.975 14.0372 18.6027 14.2197 18.1664C14.4022 17.73 14.4511 17.2494 14.3602 16.7852C14.2693 16.3211 14.0427 15.8944 13.709 15.5592C13.3754 15.224 12.9497 14.9954 12.486 14.9023C12.0223 14.8092 11.5414 14.8559 11.1043 15.0364C10.6671 15.2168 10.2934 15.523 10.0304 15.9161C9.76739 16.3092 9.627 16.7715 9.627 17.2444C9.62699 17.8761 9.87715 18.482 10.3228 18.9297C10.7684 19.3774 11.3731 19.6304 12.0048 19.6333ZM10.727 17.2444C10.7292 16.9922 10.806 16.7463 10.9477 16.5376C11.0895 16.3289 11.2898 16.1669 11.5234 16.0719C11.7571 15.9769 12.0137 15.9531 12.2608 16.0037C12.5079 16.0542 12.7346 16.1768 12.9122 16.3559C13.0897 16.5351 13.2103 16.7628 13.2588 17.0103C13.3072 17.2579 13.2812 17.5142 13.1842 17.7471C13.0872 17.9799 12.9234 18.1788 12.7135 18.3187C12.5036 18.4587 12.257 18.5333 12.0048 18.5333C11.836 18.5333 11.669 18.4999 11.5132 18.435C11.3575 18.3701 11.2161 18.275 11.0973 18.1552C10.9785 18.0353 10.8846 17.8932 10.8211 17.7368C10.7575 17.5805 10.7255 17.4132 10.727 17.2444ZM12.0048 14.3778C12.4751 14.3778 12.9348 14.2383 13.3258 13.977C13.7168 13.7158 14.0216 13.3444 14.2016 12.9099C14.3815 12.4755 14.4286 11.9974 14.3369 11.5361C14.2451 11.0749 14.0187 10.6512 13.6861 10.3187C13.3536 9.98612 12.9299 9.75966 12.4687 9.66791C12.0074 9.57616 11.5293 9.62325 11.0948 9.80322C10.6604 9.98319 10.289 10.288 10.0277 10.679C9.76645 11.07 9.627 11.5297 9.627 12C9.627 12.6306 9.87751 13.2354 10.3234 13.6813C10.7694 14.1273 11.3741 14.3778 12.0048 14.3778ZM10.727 12C10.7379 11.7499 10.822 11.5086 10.9688 11.3059C11.1157 11.1032 11.3188 10.9481 11.5531 10.8598C11.7873 10.7716 12.0423 10.7541 12.2864 10.8095C12.5305 10.8649 12.7529 10.9907 12.9261 11.1715C13.0993 11.3522 13.2156 11.5798 13.2606 11.826C13.3055 12.0722 13.2772 12.3262 13.179 12.5565C13.0809 12.7868 12.9173 12.9831 12.7086 13.1212C12.4998 13.2593 12.2551 13.3331 12.0048 13.3333C11.8317 13.3351 11.6602 13.3014 11.5007 13.2343C11.3412 13.1672 11.1971 13.0681 11.0774 12.9431C10.9577 12.8182 10.8648 12.6701 10.8045 12.5079C10.7443 12.3456 10.7179 12.1728 10.727 12ZM19.0603 9.77778H17.4937V7.24444C17.9694 6.97501 18.3651 6.58412 18.6404 6.11171C18.9156 5.6393 19.0605 5.1023 19.0603 4.55556H17.4937V2H6.51589V4.55556H4.94922C4.94902 5.1023 5.09394 5.6393 5.36919 6.11171C5.64444 6.58412 6.04014 6.97501 6.51589 7.24444V9.76667H4.94922C4.95047 10.3146 5.0959 10.8526 5.3709 11.3265C5.6459 11.8004 6.04079 12.1937 6.51589 12.4667V15.0222H4.94922C4.95016 15.5687 5.09557 16.1053 5.3707 16.5775C5.64583 17.0497 6.0409 17.4408 6.51589 17.7111V22H17.4937V17.7111C17.9686 17.4408 18.3637 17.0497 18.6389 16.5775C18.914 16.1053 19.0594 15.5687 19.0603 15.0222H17.4937V12.4667C17.9688 12.1937 18.3636 11.8004 18.6386 11.3265C18.9136 10.8526 19.0591 10.3146 19.0603 9.76667V9.77778ZM16.2603 20.7667H7.78255V3.24444H16.2937L16.2603 20.7667Z" fill="black"/>
</svg>
