<svg width="24" height="24" viewBox="0 0 24 24" fill="none" xmlns="http://www.w3.org/2000/svg">
<path d="M17.6862 10.5242C17.2116 10.0682 16.5694 9.80852 15.8973 9.80081C16.5119 8.67964 16.7373 7.39989 16.5409 6.14752C16.3445 4.89516 15.7365 3.73544 14.8052 2.83692L14.3654 2.41504L5.56055 10.8528L6.0011 11.2746C6.93268 12.1766 8.14354 12.7658 9.45308 12.9544C10.7626 13.143 12.1007 12.9208 13.2678 12.3211C13.2785 12.8688 13.4801 13.3974 13.8407 13.8225V21.5817H17.869V13.8227C18.2713 13.3493 18.4754 12.7495 18.4418 12.1398C18.4081 11.5301 18.139 10.9543 17.6868 10.5242H17.6862ZM13.4568 10.8271C12.5831 11.4767 11.5088 11.8292 10.403 11.8292C9.29729 11.8292 8.22296 11.4767 7.34932 10.8271L14.3382 4.12939C15.1481 5.12958 15.5102 6.39712 15.3449 7.65318C15.1796 8.90923 14.5004 10.0509 13.4568 10.8271ZM16.6234 20.3891H15.0853V14.6391C15.5838 14.803 16.125 14.803 16.6234 14.6391V20.3891ZM16.8058 13.1923C16.5494 13.427 16.2086 13.5579 15.8542 13.5579C15.4997 13.5579 15.1589 13.427 14.9025 13.1923C14.7776 13.0726 14.6785 12.9305 14.6109 12.7741C14.5433 12.6176 14.5085 12.45 14.5085 12.2807C14.5085 12.1114 14.5433 11.9437 14.611 11.7873C14.6786 11.6309 14.7777 11.4887 14.9026 11.369C15.0275 11.2493 15.1758 11.1543 15.3391 11.0895C15.5023 11.0248 15.6772 10.9914 15.8539 10.9914C16.0306 10.9914 16.2055 11.0248 16.3688 11.0896C16.532 11.1544 16.6803 11.2493 16.8052 11.3691H16.8058C17.0576 11.6109 17.199 11.9387 17.199 12.2803C17.199 12.622 17.0576 12.9497 16.8058 13.1916V13.1923Z" fill="black"/>
</svg>
