<svg width="24" height="24" viewBox="0 0 24 24" fill="none" xmlns="http://www.w3.org/2000/svg">
<path d="M18.8142 7.32336C18.9525 6.10477 19.0224 4.87938 19.0237 3.65297V3.03308H4.97689V3.65293C4.97819 4.87932 5.04793 6.10469 5.18578 7.32331H2V7.94331C2 10.8992 4.03017 13.5645 7.3 14.9474C8.3943 17.05 9.80326 18.4127 11.3799 18.6971V19.7271H7.71018V20.9671H16.2904V19.7271H12.6201V18.6971C14.1978 18.4124 15.6079 17.0476 16.7032 14.9417C19.972 13.5585 22 10.9039 22 7.94329V7.32329L18.8142 7.32336ZM3.27712 8.56314H5.34961C5.57992 10.1232 5.9654 11.6564 6.50032 13.14C5.65282 12.6694 4.92269 12.0133 4.36453 11.2207C3.80637 10.4281 3.43463 9.51963 3.27712 8.56314ZM12 17.5226C9.27755 17.5226 6.3674 12.2257 6.22254 4.2729H17.778C17.6332 12.2257 14.7224 17.5226 12 17.5226ZM17.4991 13.1416C18.0347 11.6576 18.4206 10.1239 18.651 8.56314H20.7229C20.5663 9.52023 20.1949 10.4294 19.6365 11.2224C19.0782 12.0154 18.3474 12.6715 17.4991 13.1416Z" fill="black"/>
</svg>
