<svg width="24" height="24" viewBox="0 0 24 24" fill="none" xmlns="http://www.w3.org/2000/svg">
<path d="M8.88979 15.7055H5.12313V14.4611H8.88979V15.7055ZM21.9898 7.66105V16.4833C21.9782 17.1278 21.7147 17.7422 21.2558 18.1949C20.7968 18.6476 20.1789 18.9027 19.5342 18.9055H4.44535C3.8035 18.897 3.18999 18.6398 2.73403 18.188C2.27807 17.7362 2.01524 17.125 2.00091 16.4833V7.66105C1.99204 7.3318 2.04833 7.00405 2.16653 6.69662C2.28472 6.3892 2.46251 6.10816 2.68966 5.86965C2.9168 5.63114 3.18884 5.43987 3.49014 5.30683C3.79144 5.17378 4.11606 5.10158 4.44535 5.09438H19.6453C19.9729 5.09291 20.297 5.16007 20.597 5.29153C20.897 5.423 21.166 5.61585 21.3869 5.85766C21.6078 6.09948 21.7756 6.38488 21.8794 6.69549C21.9832 7.0061 22.0208 7.33502 21.9898 7.66105ZM3.23424 8.21661H20.7676V7.66105C20.7619 7.33573 20.6301 7.02534 20.4 6.79527C20.17 6.5652 19.8596 6.43343 19.5342 6.42772H4.44535C4.12108 6.4335 3.81188 6.56564 3.5836 6.796C3.35531 7.02636 3.22597 7.33675 3.22313 7.66105L3.23424 8.21661ZM20.8787 12.0166H3.23424V16.3722C3.237 16.6946 3.3648 17.0034 3.59072 17.2334C3.81663 17.4635 4.12303 17.5969 4.44535 17.6055H19.6453C19.9716 17.6026 20.2836 17.4717 20.5142 17.2411C20.7449 17.0104 20.8758 16.6984 20.8787 16.3722V12.0166ZM20.8787 9.56105H3.23424V10.7833H20.8787V9.56105Z" fill="black"/>
</svg>
