<svg width="24" height="24" viewBox="0 0 24 24" fill="none" xmlns="http://www.w3.org/2000/svg">
<path d="M18.5657 10.9278L16.8096 7.70469H12.8752V6.23762C12.8678 5.6804 12.654 5.14573 12.275 4.73715C11.8814 4.36091 11.352 4.16039 10.8079 4.18144V5.4263C11.223 5.38766 11.5909 5.69282 11.6295 6.10791C11.6335 6.15104 11.6338 6.19444 11.6304 6.23762V12.206L11.6193 16.2627H10.6078C9.89367 15.2471 8.49341 14.9988 7.47361 15.707C7.26161 15.8634 7.07429 16.0507 6.91789 16.2627H6.09545C5.37421 15.2468 3.966 15.008 2.95012 15.7292C1.93424 16.4504 1.69538 17.8586 2.41662 18.8745C3.13785 19.8904 4.54607 20.1293 5.56195 19.408C5.56196 19.408 5.56197 19.408 5.56198 19.408C6.15306 18.9788 6.50399 18.2935 6.50668 17.5631V17.5075H6.51778C6.51778 17.5297 6.50668 17.5408 6.50668 17.5631C6.50945 18.8091 7.52183 19.817 8.76789 19.8142C10.01 19.8115 11.0163 18.8052 11.0191 17.5631V17.5075H16.3317V17.5631C16.3323 18.8091 17.343 19.8188 18.5891 19.8182C19.8299 19.8176 20.8374 18.815 20.8441 17.5742V17.5075H22V10.9278H18.5657ZM4.2505 18.5745C3.69192 18.5745 3.23908 18.1217 3.23906 17.5631C3.23904 17.0045 3.69185 16.5517 4.25044 16.5516C4.80902 16.5516 5.26186 17.0044 5.26188 17.563C5.26188 17.563 5.26188 17.5631 5.26188 17.5631C5.25983 18.1208 4.80822 18.5724 4.2505 18.5745ZM8.7629 18.5745C8.20432 18.5745 7.75148 18.1217 7.75146 17.5631C7.75144 17.0045 8.20425 16.5517 8.76284 16.5516C9.32142 16.5516 9.77426 17.0044 9.77428 17.563C9.77428 17.563 9.77428 17.5631 9.77428 17.5631C9.77223 18.1208 9.32062 18.5724 8.7629 18.5745ZM18.5879 18.5745C18.0294 18.5744 17.5766 18.1216 17.5766 17.563C17.5766 17.0044 18.0294 16.5516 18.588 16.5516C19.1466 16.5517 19.5994 17.0045 19.5994 17.5631C19.5994 17.5631 19.5994 17.5631 19.5994 17.5631C19.5974 18.1209 19.1457 18.5725 18.5879 18.5745H18.5879ZM20.7552 16.2627H20.433C19.7136 15.2438 18.3043 15.0009 17.2854 15.7204C17.075 15.8689 16.8916 16.0523 16.743 16.2627H12.8752V8.94951H16.0761L17.4765 11.528L17.8322 12.1726H20.7553L20.7552 16.2627Z" fill="black"/>
</svg>
