<svg width="24" height="24" viewBox="0 0 24 24" fill="none" xmlns="http://www.w3.org/2000/svg">
<path d="M6.45509 12C6.45509 12.2198 6.38992 12.4346 6.26783 12.6173C6.14574 12.8001 5.97221 12.9425 5.76918 13.0266C5.56615 13.1107 5.34275 13.1327 5.12721 13.0898C4.91168 13.0469 4.7137 12.9411 4.5583 12.7857C4.40291 12.6303 4.29709 12.4323 4.25422 12.2168C4.21134 12.0013 4.23335 11.7779 4.31744 11.5748C4.40154 11.3718 4.54396 11.1983 4.72668 11.0762C4.9094 10.9541 5.12422 10.8889 5.34398 10.8889C5.63866 10.8889 5.92128 11.006 6.12965 11.2144C6.33803 11.4227 6.45509 11.7054 6.45509 12ZM22.0106 12.0034L19.7884 14.2267H18.6773L17.5662 13.4L16.4551 14.2267L15.344 13.4L14.2329 14.2267H11.4651C10.9631 15.236 10.1348 16.046 9.11451 16.5254C8.09426 17.0048 6.94197 17.1253 5.84461 16.8675C4.74725 16.6096 3.76921 15.9885 3.0692 15.105C2.36919 14.2214 1.98828 13.1272 1.98828 12C1.98828 10.8728 2.36919 9.77859 3.0692 8.89504C3.76921 8.01148 4.74725 7.3904 5.84461 7.13256C6.94197 6.87472 8.09426 6.99526 9.11451 7.47461C10.1348 7.95397 10.9631 8.76401 11.4651 9.7733H19.7884L22.0106 12.0034ZM20.2451 12.0023L19.2695 11.0234H10.694L10.3484 10.3334C9.97253 9.57572 9.35156 8.96738 8.58634 8.60714C7.82112 8.2469 6.9566 8.15592 6.13315 8.34896C5.3097 8.542 4.57569 9.00773 4.0503 9.67053C3.52491 10.3333 3.23901 11.1543 3.23901 12C3.23901 12.8458 3.52491 13.6667 4.0503 14.3295C4.57569 14.9923 5.3097 15.4581 6.13315 15.6511C6.9566 15.8442 7.82112 15.7532 8.58634 15.3929C9.35156 15.0327 9.97253 14.4244 10.3484 13.6667L10.694 12.9767H13.9362L15.344 12L16.4551 12.8267L17.5662 12L18.9751 12.9778H19.2706L20.2451 12.0023Z" fill="black"/>
</svg>
