<svg width="24" height="24" viewBox="0 0 24 24" fill="none" xmlns="http://www.w3.org/2000/svg">
<path d="M18.8565 9.45402L18.8597 17.9854C18.8204 18.9883 18.4206 19.9433 17.7338 20.6752C17.0469 21.407 16.1191 21.8664 15.1206 21.9691C14.9373 21.9899 14.7529 22.0002 14.5684 22C13.7642 22.0058 12.9744 21.7871 12.2877 21.3684C11.6011 20.9497 11.0449 20.3478 10.6817 19.6302L7.09726 12.7486C7.06415 12.685 7.04389 12.6156 7.03762 12.5442C7.03136 12.4728 7.03921 12.4009 7.06074 12.3325C7.08227 12.2642 7.11706 12.2007 7.1631 12.1458C7.20915 12.0909 7.26557 12.0456 7.32912 12.0125C7.39268 11.9794 7.46213 11.9591 7.53352 11.9528C7.60491 11.9466 7.67683 11.9544 7.74518 11.976C7.81354 11.9975 7.87698 12.0323 7.93189 12.0783C7.9868 12.1244 8.0321 12.1808 8.06521 12.2443L11.6465 19.1196C11.9472 19.7285 12.4324 20.2269 13.0329 20.5439C13.6335 20.8609 14.3188 20.9802 14.9911 20.885C15.7258 20.8151 16.4107 20.4831 16.9206 19.9496C17.4305 19.4162 17.7314 18.717 17.7681 17.98L17.7649 9.454C17.7649 9.30925 17.8224 9.17042 17.9248 9.06807C18.0271 8.96571 18.1659 8.90821 18.3107 8.90821C18.4554 8.90821 18.5943 8.96571 18.6966 9.06807C18.799 9.17042 18.8565 9.30925 18.8565 9.454V9.45402ZM15.9591 14.8012C16.0308 14.8012 16.1017 14.7871 16.168 14.7597C16.2342 14.7323 16.2944 14.6921 16.3451 14.6414C16.3958 14.5907 16.436 14.5305 16.4634 14.4643C16.4908 14.3981 16.5049 14.3271 16.5049 14.2554V8.59159C16.5049 8.44684 16.4474 8.30801 16.345 8.20566C16.2426 8.1033 16.1038 8.0458 15.9591 8.0458C15.8143 8.0458 15.6755 8.1033 15.5731 8.20566C15.4708 8.30801 15.4133 8.44684 15.4133 8.59159V14.2554C15.4132 14.3271 15.4273 14.3981 15.4547 14.4643C15.4822 14.5305 15.5224 14.5907 15.573 14.6414C15.6237 14.6921 15.6839 14.7323 15.7502 14.7597C15.8164 14.7871 15.8874 14.8012 15.9591 14.8012ZM13.068 6.63867V14.3056C13.068 14.4503 13.1255 14.5891 13.2278 14.6915C13.3302 14.7939 13.469 14.8514 13.6138 14.8514C13.7585 14.8514 13.8974 14.7939 13.9997 14.6915C14.1021 14.5891 14.1596 14.4503 14.1596 14.3056V6.63867C14.1596 6.49391 14.1021 6.35507 13.9997 6.25271C13.8974 6.15035 13.7585 6.09284 13.6138 6.09284C13.469 6.09284 13.3302 6.15035 13.2278 6.25271C13.1255 6.35507 13.068 6.49391 13.068 6.63867ZM10.7227 7.73667V14.3056C10.7227 14.4503 10.7802 14.5891 10.8826 14.6915C10.985 14.7939 11.1238 14.8514 11.2685 14.8514C11.4133 14.8514 11.5521 14.7939 11.6545 14.6915C11.7569 14.5891 11.8144 14.4503 11.8144 14.3056V7.73667C11.8144 7.59191 11.7569 7.45307 11.6545 7.35071C11.5521 7.24835 11.4133 7.19084 11.2685 7.19084C11.1238 7.19084 10.985 7.24835 10.8826 7.35071C10.7802 7.45307 10.7227 7.59191 10.7227 7.73667ZM3.45141 2C3.29413 2.00001 3.14039 2.04665 3.00963 2.13403C2.87886 2.22141 2.77695 2.34561 2.71677 2.49091C2.65659 2.63622 2.64085 2.79611 2.67154 2.95036C2.70223 3.10461 2.77797 3.24629 2.88918 3.3575C3.00039 3.4687 3.14209 3.54443 3.29634 3.57511C3.45059 3.60578 3.61048 3.59003 3.75578 3.52983C3.90107 3.46964 4.02526 3.36772 4.11263 3.23694C4.2 3.10617 4.24663 2.95243 4.24663 2.79516C4.24662 2.58426 4.16283 2.38201 4.0137 2.23289C3.86456 2.08377 3.6623 1.99999 3.45141 2ZM3.45141 4.38556C3.29414 4.38556 3.1404 4.4322 3.00964 4.51958C2.87887 4.60696 2.77696 4.73115 2.71677 4.87645C2.65659 5.02175 2.64085 5.18164 2.67153 5.33589C2.70221 5.49013 2.77795 5.63182 2.88916 5.74303C3.00036 5.85423 3.14205 5.92997 3.2963 5.96065C3.45055 5.99134 3.61043 5.97559 3.75573 5.91541C3.90103 5.85523 4.02522 5.75331 4.1126 5.62255C4.19998 5.49179 4.24662 5.33805 4.24663 5.18078C4.24663 4.96987 4.16285 4.7676 4.01371 4.61847C3.86458 4.46934 3.66231 4.38556 3.45141 4.38556ZM5.83696 4.38556C5.67969 4.38555 5.52594 4.43218 5.39517 4.51955C5.2644 4.60692 5.16247 4.73111 5.10228 4.87641C5.04209 5.02171 5.02634 5.18159 5.05701 5.33585C5.08769 5.4901 5.16342 5.63179 5.27462 5.743C5.38583 5.85422 5.52751 5.92996 5.68176 5.96065C5.83601 5.99134 5.9959 5.9756 6.1412 5.91542C6.28651 5.85524 6.4107 5.75332 6.49808 5.62256C6.58547 5.49179 6.63211 5.33805 6.63212 5.18078C6.63212 4.96989 6.54835 4.76764 6.39924 4.61851C6.25013 4.46938 6.04788 4.38558 5.83699 4.38556H5.83696ZM3.45141 6.77111C3.29413 6.77112 3.14039 6.81776 3.00963 6.90514C2.87886 6.99253 2.77695 7.11672 2.71677 7.26203C2.65659 7.40733 2.64085 7.56722 2.67154 7.72147C2.70223 7.87572 2.77797 8.01741 2.88918 8.12861C3.0004 8.23981 3.14209 8.31554 3.29635 8.34622C3.4506 8.37689 3.61048 8.36114 3.75578 8.30094C3.90108 8.24075 4.02527 8.13882 4.11264 8.00805C4.20001 7.87727 4.24664 7.72353 4.24663 7.56626C4.24661 7.35536 4.16282 7.15311 4.01369 7.00399C3.86456 6.85488 3.6623 6.77111 3.45141 6.77111ZM8.22245 3.59038C8.37973 3.5904 8.53348 3.54378 8.66426 3.45642C8.79504 3.36906 8.89698 3.24488 8.95718 3.09958C9.01739 2.95428 9.03315 2.79439 9.00249 2.64014C8.97182 2.48588 8.8961 2.34418 8.7849 2.23296C8.67369 2.12174 8.53201 2.04599 8.37776 2.01529C8.2235 1.9846 8.06361 2.00033 7.9183 2.06051C7.77299 2.12069 7.64879 2.2226 7.56141 2.35337C7.47402 2.48414 7.42738 2.63788 7.42737 2.79516C7.42736 2.89958 7.44792 3.00298 7.48787 3.09945C7.52782 3.19593 7.58638 3.28359 7.66021 3.35743C7.73404 3.43128 7.8217 3.48986 7.91816 3.52982C8.01463 3.56979 8.11803 3.59037 8.22245 3.59038ZM8.22245 5.97593C8.37973 5.97597 8.53349 5.92936 8.66428 5.842C8.79507 5.75464 8.89702 5.63046 8.95723 5.48517C9.01744 5.33987 9.03321 5.17998 9.00255 5.02571C8.97188 4.87145 8.89616 4.72975 8.78496 4.61852C8.67376 4.50729 8.53207 4.43154 8.37781 4.40085C8.22356 4.37015 8.06366 4.38589 7.91835 4.44607C7.77304 4.50625 7.64884 4.60817 7.56145 4.73894C7.47407 4.86972 7.42743 5.02346 7.42743 5.18074C7.42742 5.39161 7.51118 5.59385 7.66027 5.74296C7.80936 5.89208 8.01158 5.97587 8.22245 5.9759V5.97593ZM5.83699 6.77111C5.67972 6.7711 5.52597 6.81774 5.3952 6.90511C5.26442 6.99249 5.1625 7.11668 5.10231 7.26198C5.04212 7.40729 5.02637 7.56717 5.05705 7.72143C5.08773 7.87568 5.16347 8.01738 5.27468 8.12859C5.38589 8.2398 5.52759 8.31553 5.68184 8.34621C5.8361 8.37689 5.99599 8.36114 6.14129 8.30095C6.28659 8.24076 6.41078 8.13883 6.49816 8.00805C6.58553 7.87728 6.63216 7.72353 6.63215 7.56626C6.63212 7.35538 6.54834 7.15314 6.39922 7.00403C6.25011 6.85492 6.04787 6.77113 5.83699 6.77111ZM20.5479 3.59038C20.7052 3.59037 20.8589 3.54373 20.9897 3.45635C21.1204 3.36897 21.2223 3.24478 21.2825 3.09948C21.3427 2.95418 21.3585 2.7943 21.3278 2.64005C21.2971 2.4858 21.2214 2.34411 21.1101 2.23291C20.9989 2.1217 20.8573 2.04596 20.703 2.01528C20.5488 1.9846 20.3889 2.00034 20.2436 2.06052C20.0983 2.12071 19.9741 2.22262 19.8867 2.35339C19.7993 2.48415 19.7527 2.63789 19.7527 2.79516C19.7527 2.89959 19.7732 3.003 19.8132 3.09949C19.8531 3.19597 19.9117 3.28364 19.9856 3.35749C20.0594 3.43133 20.1471 3.48991 20.2436 3.52987C20.34 3.56983 20.4435 3.59039 20.5479 3.59038ZM20.5479 4.38552C20.3906 4.38552 20.2369 4.43215 20.1061 4.51952C19.9753 4.60689 19.8734 4.73108 19.8132 4.87637C19.753 5.02167 19.7373 5.18156 19.7679 5.33581C19.7986 5.49007 19.8743 5.63176 19.9856 5.74297C20.0968 5.85419 20.2384 5.92993 20.3927 5.96061C20.5469 5.9913 20.7068 5.97556 20.8521 5.91538C20.9974 5.8552 21.1216 5.75329 21.209 5.62252C21.2964 5.49176 21.343 5.33802 21.3431 5.18074C21.343 4.96986 21.2593 4.76761 21.1101 4.61849C20.961 4.46936 20.7588 4.38558 20.5479 4.38556V4.38552ZM20.5479 6.77108C20.3906 6.77107 20.2369 6.8177 20.1061 6.90508C19.9753 6.99245 19.8734 7.11664 19.8132 7.26195C19.753 7.40725 19.7373 7.56714 19.768 7.7214C19.7986 7.87565 19.8744 8.01734 19.9856 8.12855C20.0968 8.23976 20.2385 8.3155 20.3927 8.34618C20.547 8.37686 20.7069 8.36111 20.8522 8.30092C20.9975 8.24072 21.1217 8.1388 21.2091 8.00802C21.2964 7.87725 21.3431 7.7235 21.3431 7.56622C21.343 7.35535 21.2592 7.15312 21.1101 7.00401C20.961 6.8549 20.7588 6.77113 20.5479 6.77111V6.77108ZM10.6081 3.59038C10.7654 3.59037 10.9191 3.54373 11.0499 3.45635C11.1806 3.36897 11.2826 3.24478 11.3427 3.09948C11.4029 2.95418 11.4187 2.7943 11.388 2.64005C11.3573 2.4858 11.2816 2.34411 11.1704 2.23291C11.0592 2.1217 10.9175 2.04596 10.7632 2.01528C10.609 1.9846 10.4491 2.00034 10.3038 2.06052C10.1585 2.12071 10.0343 2.22262 9.94692 2.35339C9.85954 2.48415 9.8129 2.63789 9.81289 2.79516C9.81288 2.89959 9.83344 3.003 9.8734 3.09949C9.91336 3.19597 9.97194 3.28364 10.0458 3.35749C10.1196 3.43133 10.2073 3.48991 10.3038 3.52987C10.4003 3.56983 10.5037 3.59039 10.6081 3.59038ZM12.9937 3.59038C13.1509 3.59039 13.3047 3.54376 13.4355 3.45639C13.5662 3.36902 13.6682 3.24483 13.7284 3.09953C13.7886 2.95423 13.8043 2.79435 13.7736 2.6401C13.743 2.48584 13.6672 2.34415 13.556 2.23293C13.4448 2.12172 13.3031 2.04598 13.1489 2.01529C12.9946 1.9846 12.8347 2.00034 12.6894 2.06052C12.5441 2.1207 12.4199 2.22261 12.3326 2.35338C12.2452 2.48414 12.1985 2.63788 12.1985 2.79516C12.1985 3.00605 12.2823 3.2083 12.4314 3.35743C12.5805 3.50656 12.7827 3.59036 12.9936 3.59038H12.9937ZM18.1623 2C18.005 2 17.8513 2.04665 17.7205 2.13403C17.5898 2.22141 17.4878 2.3456 17.4277 2.49091C17.3675 2.63621 17.3517 2.7961 17.3824 2.95035C17.4131 3.1046 17.4889 3.24629 17.6001 3.35749C17.7113 3.4687 17.853 3.54443 18.0072 3.5751C18.1615 3.60578 18.3214 3.59003 18.4667 3.52984C18.612 3.46964 18.7361 3.36772 18.8235 3.23695C18.9109 3.10617 18.9575 2.95243 18.9575 2.79516C18.9575 2.58426 18.8737 2.38201 18.7246 2.23289C18.5755 2.08377 18.3732 1.99999 18.1623 2ZM18.1623 3.98798C18.005 3.98798 17.8513 4.03462 17.7205 4.122C17.5898 4.20938 17.4878 4.33357 17.4277 4.47887C17.3675 4.62417 17.3517 4.78405 17.3824 4.9383C17.4131 5.09255 17.4888 5.23424 17.6 5.34545C17.7112 5.45665 17.8529 5.53239 18.0072 5.56307C18.1614 5.59376 18.3213 5.57801 18.4666 5.51783C18.6119 5.45765 18.7361 5.35574 18.8235 5.22497C18.9109 5.09421 18.9575 4.94047 18.9575 4.7832C18.9575 4.67877 18.937 4.57536 18.897 4.47888C18.857 4.38239 18.7985 4.29473 18.7246 4.22088C18.6508 4.14704 18.5631 4.08846 18.4666 4.0485C18.3701 4.00854 18.2667 3.98797 18.1623 3.98798Z" fill="black"/>
</svg>
